<?xml version="1.0" standalone="no"?>
<!DOCTYPE svg PUBLIC "-//W3C//DTD SVG 20010904//EN"
 "http://www.w3.org/TR/2001/REC-SVG-20010904/DTD/svg10.dtd">
<svg version="1.0" xmlns="http://www.w3.org/2000/svg"
 width="300.000000pt" height="136.000000pt" viewBox="0 0 300.000000 136.000000"
 preserveAspectRatio="xMidYMid meet">
<metadata>
CharisIntelligence Logo in svg
</metadata>
<g transform="translate(0.000000,136.000000) scale(0.100000,-0.100000)"
fill="#000000" stroke="none">
<path d="M290 1215 c-30 -36 -74 -99 -97 -142 -124 -230 -137 -538 -33 -786
36 -87 128 -223 151 -221 10 1 299 203 326 228 1 1 -9 29 -22 62 -14 32 -25
69 -25 82 0 12 -2 22 -5 22 -3 0 -56 -36 -117 -81 -125 -91 -116 -90 -160 -4
-104 201 -83 476 50 634 l29 35 98 -73 c97 -72 114 -77 115 -32 0 7 12 40 26
72 15 33 25 61 23 63 -30 26 -289 206 -295 205 -5 0 -34 -29 -64 -64z m108 -2
c46 -29 172 -123 192 -143 18 -18 18 -21 2 -59 -17 -40 -40 -60 -51 -43 -17
24 -128 92 -151 92 -59 0 -146 -146 -167 -281 -9 -61 -10 -197 -2 -249 14 -81
57 -177 102 -227 19 -22 67 -32 67 -15 0 4 13 13 29 20 16 7 41 24 55 37 15
14 30 25 33 25 4 0 15 8 25 17 19 17 20 16 37 -6 10 -13 18 -37 17 -54 -1 -27
-15 -41 -129 -124 -70 -51 -134 -93 -141 -93 -13 0 -86 89 -86 105 0 4 -8 19
-18 33 -10 15 -26 52 -36 82 -10 30 -21 64 -26 75 -30 72 -40 287 -19 399 15
77 58 206 75 227 8 8 14 20 14 25 0 11 50 85 92 136 34 43 47 46 86 21z"/>
<path d="M740 930 c-7 -33 -11 -63 -8 -66 3 -2 30 -23 59 -45 l53 -40 13 53
c7 29 12 60 13 68 0 15 -90 90 -108 90 -5 0 -15 -27 -22 -60z m75 -20 c24 -26
28 -50 9 -57 -28 -11 -75 53 -50 69 17 11 21 10 41 -12z"/>
<path d="M1014 886 c-76 -33 -48 -146 35 -146 38 0 70 25 54 41 -10 10 -16 10
-25 1 -18 -18 -42 -15 -62 7 -34 37 11 94 54 71 20 -11 40 -6 40 10 0 6 -57
32 -64 30 -1 -1 -15 -7 -32 -14z"/>
<path d="M1880 887 c-15 -8 -26 -23 -28 -39 -3 -23 2 -28 40 -40 51 -17 48
-33 -4 -32 -24 0 -38 -4 -38 -12 0 -27 79 -33 105 -8 28 28 15 57 -33 73 -51
16 -50 37 2 34 26 -2 36 2 36 12 0 8 -6 15 -14 15 -8 0 -20 2 -28 5 -7 3 -24
-1 -38 -8z"/>
<path d="M1167 818 c1 -58 4 -74 17 -76 12 -3 16 5 16 30 0 31 2 33 35 33 33
0 35 -2 35 -32 0 -22 5 -33 14 -33 11 0 15 18 18 75 3 66 1 75 -14 75 -13 0
-18 -8 -18 -30 0 -28 -3 -30 -35 -30 -32 0 -35 2 -35 30 0 22 -5 30 -17 30
-16 0 -18 -10 -16 -72z"/>
<path d="M1385 823 c-17 -37 -31 -71 -33 -75 -2 -4 5 -8 16 -8 12 0 23 8 26
18 8 25 74 25 82 0 3 -10 14 -18 25 -18 18 0 17 3 -7 58 -15 31 -28 65 -31 75
-3 9 -15 17 -27 17 -17 0 -28 -14 -51 -67z m68 -3 c4 -16 0 -20 -19 -20 -27 0
-28 3 -13 31 12 22 24 18 32 -11z"/>
<path d="M1565 815 c0 -65 2 -75 18 -75 11 0 17 8 17 25 0 15 6 25 14 25 7 0
21 -11 30 -25 9 -14 25 -25 36 -25 19 0 20 1 5 24 -15 23 -15 27 0 50 16 24
16 28 1 51 -14 21 -24 25 -69 25 l-52 0 0 -75z m93 23 c-2 -17 -11 -24 -30
-26 -24 -3 -28 0 -28 22 0 22 4 26 31 26 26 0 30 -3 27 -22z"/>
<path d="M1750 815 c0 -68 2 -75 20 -75 18 0 20 7 20 75 0 68 -2 75 -20 75
-18 0 -20 -7 -20 -75z"/>
<path d="M706 802 c-13 -12 -5 -276 10 -350 9 -42 17 -78 19 -80 1 -2 32 18
68 44 62 45 64 48 56 78 -5 17 -12 74 -16 126 l-6 95 -63 47 c-34 25 -65 44
-68 40z m75 -85 c24 -18 39 -74 41 -159 2 -70 0 -78 -23 -101 -48 -48 -66 -6
-68 161 -2 102 0 112 16 112 10 0 25 -6 34 -13z"/>
<path d="M980 560 c0 -64 3 -80 15 -80 12 0 15 16 15 80 0 64 -3 80 -15 80
-12 0 -15 -16 -15 -80z"/>
<path d="M1080 559 c0 -71 2 -80 17 -77 14 3 17 12 15 46 -2 23 0 42 5 42 4 0
23 -21 42 -46 19 -24 39 -43 45 -41 6 2 12 36 14 80 3 73 2 77 -19 77 -20 0
-21 -4 -17 -45 3 -25 2 -45 -2 -45 -3 0 -21 20 -39 45 -49 68 -61 61 -61 -36z"/>
<path d="M1267 633 c-15 -14 -6 -23 24 -23 l31 0 -4 -62 c-3 -53 0 -63 15 -66
15 -3 17 5 17 62 0 64 1 66 25 66 16 0 25 6 25 15 0 12 -14 15 -63 15 -35 0
-67 -3 -70 -7z"/>
<path d="M1450 563 l0 -78 58 1 c43 0 57 4 57 15 0 10 -11 13 -42 11 -38 -3
-43 -1 -43 17 0 17 6 21 35 21 26 0 35 4 35 16 0 13 -7 15 -35 11 -30 -5 -35
-3 -35 14 0 16 7 19 40 19 29 0 40 4 40 15 0 12 -13 15 -55 15 l-55 0 0 -77z"/>
<path d="M1620 565 l0 -75 39 0 c22 0 46 -3 55 -6 11 -4 16 0 16 14 0 18 -5
20 -35 15 l-35 -6 0 67 c0 59 -2 66 -20 66 -18 0 -20 -7 -20 -75z"/>
<path d="M1782 564 l3 -76 53 -2 c43 -1 52 2 52 16 0 14 -6 16 -35 11 l-35 -6
0 67 c0 60 -2 66 -20 66 -19 0 -21 -5 -18 -76z"/>
<path d="M1942 563 c3 -65 6 -78 21 -81 15 -3 17 6 17 77 0 75 -2 81 -20 81
-19 0 -21 -5 -18 -77z"/>
<path d="M2066 619 c-20 -16 -26 -29 -26 -58 0 -59 55 -94 113 -72 21 8 27 17
27 41 0 36 -27 42 -32 8 -4 -30 -39 -35 -62 -9 -25 27 -14 69 19 77 14 3 31 1
38 -4 8 -7 18 -8 27 -1 13 8 12 12 -4 24 -28 21 -69 19 -100 -6z"/>
<path d="M2240 563 l0 -78 60 0 c50 0 60 3 60 17 0 14 -6 16 -30 12 -38 -8
-61 1 -54 21 4 9 19 15 40 15 25 0 34 4 34 16 0 13 -7 15 -34 11 -38 -6 -47
-2 -39 19 3 9 20 14 44 14 28 0 39 4 39 15 0 12 -13 15 -60 15 l-60 0 0 -77z"/>
<path d="M2420 570 c0 -38 0 -73 -1 -77 0 -5 7 -9 15 -11 13 -3 16 7 16 45 l0
48 44 -50 c24 -27 47 -47 51 -43 4 4 7 40 7 80 0 58 -3 74 -15 76 -12 3 -17
-8 -19 -45 l-3 -48 -34 48 c-49 67 -61 62 -61 -23z"/>
<path d="M2635 615 c-57 -56 0 -149 79 -129 31 8 42 22 28 36 -8 8 -16 7 -27
-2 -25 -21 -65 2 -65 39 0 41 24 58 61 44 35 -14 52 3 24 24 -29 21 -73 16
-100 -12z"/>
<path d="M2810 563 l0 -78 58 1 c42 0 57 4 57 14 0 11 -11 14 -42 12 -38 -3
-43 -1 -43 17 0 18 6 21 41 21 28 0 39 4 36 13 -2 6 -19 12 -38 13 -24 0 -35
5 -37 17 -3 14 4 17 37 17 30 0 41 4 41 15 0 12 -13 15 -55 15 l-55 0 0 -77z"/>
</g>
</svg>
